<svg viewBox="55 125 625 142" fill="none" xmlns="http://www.w3.org/2000/svg">
<path d="M249.747 200.699V248H227.055V138.909H249.108V180.617H250.067C251.913 175.788 254.896 172.006 259.016 169.271C263.135 166.501 268.302 165.116 274.516 165.116C280.198 165.116 285.152 166.359 289.378 168.845C293.639 171.295 296.942 174.829 299.286 179.445C301.665 184.026 302.837 189.513 302.801 195.905V248H280.109V199.953C280.145 194.911 278.866 190.987 276.274 188.181C273.717 185.376 270.131 183.973 265.514 183.973C262.425 183.973 259.69 184.63 257.311 185.944C254.967 187.258 253.121 189.175 251.771 191.697C250.457 194.183 249.783 197.183 249.747 200.699ZM340.99 249.545C335.77 249.545 331.118 248.639 327.034 246.828C322.95 244.982 319.719 242.265 317.339 238.678C314.996 235.056 313.824 230.546 313.824 225.148C313.824 220.603 314.658 216.786 316.327 213.696C317.996 210.607 320.269 208.121 323.145 206.239C326.022 204.357 329.289 202.936 332.947 201.977C336.64 201.018 340.51 200.344 344.559 199.953C349.317 199.456 353.153 198.994 356.064 198.568C358.976 198.107 361.089 197.432 362.403 196.544C363.717 195.656 364.374 194.342 364.374 192.602V192.283C364.374 188.909 363.309 186.299 361.178 184.452C359.083 182.606 356.1 181.683 352.229 181.683C348.145 181.683 344.896 182.588 342.481 184.399C340.067 186.175 338.469 188.412 337.687 191.111L316.7 189.406C317.765 184.435 319.861 180.138 322.986 176.516C326.111 172.858 330.141 170.053 335.077 168.099C340.049 166.111 345.802 165.116 352.336 165.116C356.881 165.116 361.231 165.649 365.386 166.714C369.577 167.78 373.287 169.431 376.519 171.668C379.786 173.906 382.361 176.782 384.243 180.298C386.125 183.778 387.066 187.95 387.066 192.815V248H365.546V236.654H364.907C363.593 239.211 361.835 241.466 359.633 243.419C357.432 245.337 354.786 246.846 351.697 247.947C348.607 249.012 345.038 249.545 340.99 249.545ZM347.488 233.884C350.827 233.884 353.774 233.227 356.331 231.913C358.888 230.564 360.894 228.753 362.35 226.48C363.806 224.207 364.534 221.633 364.534 218.756V210.074C363.824 210.536 362.847 210.962 361.604 211.352C360.397 211.707 359.03 212.045 357.503 212.364C355.976 212.648 354.449 212.915 352.922 213.163C351.395 213.376 350.01 213.572 348.767 213.749C346.104 214.14 343.778 214.761 341.789 215.614C339.8 216.466 338.256 217.62 337.155 219.076C336.054 220.496 335.503 222.272 335.503 224.403C335.503 227.492 336.622 229.854 338.859 231.487C341.132 233.085 344.008 233.884 347.488 233.884ZM424.362 200.699V248H401.671V166.182H423.297V180.617H424.256C426.067 175.859 429.103 172.094 433.365 169.325C437.626 166.519 442.793 165.116 448.865 165.116C454.547 165.116 459.501 166.359 463.727 168.845C467.953 171.331 471.237 174.882 473.581 179.499C475.925 184.08 477.097 189.548 477.097 195.905V248H454.405V199.953C454.441 194.946 453.162 191.04 450.57 188.234C447.977 185.393 444.409 183.973 439.863 183.973C436.809 183.973 434.11 184.63 431.767 185.944C429.458 187.258 427.647 189.175 426.333 191.697C425.055 194.183 424.398 197.183 424.362 200.699ZM522.13 249.332C515.916 249.332 510.287 247.734 505.245 244.538C500.238 241.306 496.26 236.565 493.313 230.315C490.401 224.03 488.945 216.324 488.945 207.197C488.945 197.822 490.454 190.028 493.473 183.813C496.491 177.563 500.504 172.893 505.511 169.804C510.554 166.679 516.076 165.116 522.077 165.116C526.658 165.116 530.475 165.898 533.529 167.46C536.619 168.987 539.105 170.905 540.987 173.213C542.904 175.486 544.36 177.723 545.355 179.925H546.047V138.909H568.686V248H546.314V234.896H545.355C544.289 237.169 542.78 239.424 540.827 241.661C538.909 243.863 536.406 245.692 533.316 247.148C530.262 248.604 526.534 249.332 522.13 249.332ZM529.321 231.274C532.979 231.274 536.069 230.28 538.59 228.291C541.147 226.267 543.1 223.444 544.449 219.822C545.834 216.2 546.527 211.956 546.527 207.091C546.527 202.226 545.852 198 544.502 194.413C543.153 190.827 541.2 188.057 538.643 186.104C536.086 184.151 532.979 183.174 529.321 183.174C525.593 183.174 522.45 184.186 519.893 186.21C517.336 188.234 515.401 191.04 514.087 194.626C512.773 198.213 512.116 202.368 512.116 207.091C512.116 211.849 512.773 216.058 514.087 219.715C515.436 223.337 517.372 226.178 519.893 228.238C522.45 230.262 525.593 231.274 529.321 231.274ZM610.034 138.909V248H587.343V138.909H610.034ZM628.212 248V166.182H650.211V180.457H651.063C652.555 175.379 655.058 171.544 658.574 168.952C662.089 166.324 666.138 165.01 670.719 165.01C671.855 165.01 673.08 165.081 674.394 165.223C675.708 165.365 676.862 165.56 677.857 165.809V185.944C676.791 185.624 675.317 185.34 673.435 185.092C671.553 184.843 669.831 184.719 668.268 184.719C664.93 184.719 661.947 185.447 659.32 186.903C656.727 188.323 654.668 190.312 653.141 192.869C651.649 195.425 650.903 198.373 650.903 201.711V248H628.212Z" fill="#111111"/>
<path d="M118.287 235.573C126.413 235.573 133 242.161 133 250.287C133 258.413 126.413 265 118.287 265H69.7129C61.5873 265 55.0002 258.413 55 250.287C55 242.161 61.5872 235.573 69.7129 235.573H118.287ZM194.155 127.004C194.27 127.001 194.385 127 194.5 127C201.956 127 208 133.044 208 140.5V251.5C208 258.956 201.956 265 194.5 265C187.044 265 181 258.956 181 251.5V155.412H132.206C124.36 155.412 118 149.052 118 141.206C118 133.36 124.36 127 132.206 127H193.794C193.915 127 194.035 127.001 194.155 127.004ZM137.287 199.044C145.413 199.044 152 205.632 152 213.758C152 221.883 145.413 228.471 137.287 228.471H88.7129C80.5873 228.471 74.0002 221.883 74 213.758C74 205.632 80.5872 199.044 88.7129 199.044H137.287ZM157.287 162.515C165.413 162.515 172 169.102 172 177.228C172 185.353 165.413 191.941 157.287 191.941H108.713C100.587 191.941 94 185.353 94 177.228C94.0002 169.102 100.587 162.515 108.713 162.515H157.287Z" fill="#111111"/>
</svg>
