<svg width="285" height="345" viewBox="0 0 285 345" fill="none" xmlns="http://www.w3.org/2000/svg">
<path d="M129.287 212.573C137.413 212.573 144 219.161 144 227.287C144 235.413 137.413 242 129.287 242H80.7129C72.5873 242 66.0002 235.413 66 227.287C66 219.161 72.5872 212.573 80.7129 212.573H129.287ZM205.155 104.004C205.27 104.001 205.385 104 205.5 104C212.956 104 219 110.044 219 117.5V228.5C219 235.956 212.956 242 205.5 242C198.044 242 192 235.956 192 228.5V132.412H143.206C135.36 132.412 129 126.052 129 118.206C129 110.36 135.36 104 143.206 104H204.794C204.915 104 205.035 104.001 205.155 104.004ZM148.287 176.044C156.413 176.044 163 182.632 163 190.758C163 198.883 156.413 205.471 148.287 205.471H99.7129C91.5873 205.471 85.0002 198.883 85 190.758C85 182.632 91.5872 176.044 99.7129 176.044H148.287ZM168.287 139.515C176.413 139.515 183 146.102 183 154.228C183 162.353 176.413 168.941 168.287 168.941H119.713C111.587 168.941 105 162.353 105 154.228C105 146.102 111.587 139.515 119.713 139.515H168.287Z" fill="#111111"/>
</svg>
